/vscmnt/brussel_pixiu_data/_data_brussel/112/vsc11236/PredSimResults/SUBJ06mtu3D/weighted-LRposFixed/trackIG/worker_01.mot
version=1
nRows=8
nColumns=50
inDegrees=yes
endheader
                time	         pelvis_tilt	         pelvis_list	     pelvis_rotation	           pelvis_tx	           pelvis_ty	           pelvis_tz	       hip_flexion_r	     hip_adduction_r	      hip_rotation_r	        knee_angle_r	       ankle_angle_r	         mtp_angle_r	       hip_flexion_l	     hip_adduction_l	      hip_rotation_l	        knee_angle_l	       ankle_angle_l	         mtp_angle_l	    lumbar_extension	      lumbar_bending	     lumbar_rotation	 ercspn_r/activation	 intobl_r/activation	 extobl_r/activation	    abd_r/activation	    add_r/activation	hamstrings_r/activation	bifemsh_r/activation	glut_max_r/activation	iliopsoas_r/activation	rect_fem_r/activation	  vasti_r/activation	gastroc_r/activation	 soleus_r/activation	tib_ant_r/activation	 ercspn_l/activation	 intobl_l/activation	 extobl_l/activation	    abd_l/activation	    add_l/activation	hamstrings_l/activation	bifemsh_l/activation	glut_max_l/activation	iliopsoas_l/activation	rect_fem_l/activation	  vasti_l/activation	gastroc_l/activation	 soleus_l/activation	tib_ant_l/activation	
          0.00000000	         -7.66868612	         -4.51264364	          8.98936561	          0.00000000	          0.92626119	         -0.01496520	         31.27053372	          0.65031090	         -5.86974088	         -1.25759638	          6.77147897	          0.21166564	        -10.96394743	         -4.81039269	          6.93913631	         -5.96758446	         10.09701497	         28.95646337	         -1.98252894	          2.54510415	         -3.39802517	          0.10975139	          0.17834847	          0.03156240	          0.01000043	          0.08026581	          0.11256770	          0.24450463	          0.01000062	          0.11582095	          0.01000057	          0.01000007	          0.02159935	          0.01000004	          0.28131148	          0.05793614	          0.01000004	          0.01000006	          0.05978956	          0.01000034	          0.01827279	          0.14563569	          0.04579762	          0.43647289	          0.01207347	          0.01000049	          0.35785716	          0.32740303	          0.02023216	
          0.01244041	         -7.76615986	         -4.45602706	          9.05153449	          0.01722942	          0.92413968	         -0.01475401	         31.37497495	          0.74775169	         -5.58031065	         -2.92662956	          6.35172155	          0.21579930	        -11.21160349	         -4.79540949	          6.58182407	         -7.28464833	          9.45757210	         30.93195830	         -1.71197719	          2.89244701	         -3.56422102	          0.09090352	          0.15343529	          0.02614210	          0.01000004	          0.11496944	          0.09868192	          0.20251547	          0.05028321	          0.09593068	          0.01000063	          0.01000011	          0.02859710	          0.01781823	          0.28989663	          0.09073441	          0.01000005	          0.01000016	          0.04952172	          0.02972104	          0.01849533	          0.12062529	          0.03793267	          0.43982775	          0.01000140	          0.01000097	          0.32905667	          0.30900756	          0.01675763	
          0.02488082	         -7.84319077	         -4.39462967	          9.05764734	          0.03486549	          0.92224546	         -0.01445605	         31.30752862	          0.84521295	         -5.28384646	         -4.54758007	          5.88530913	          0.19912773	        -11.35663983	         -4.76373990	          6.19231595	         -8.86211557	          8.66562374	         32.94982881	         -1.42117628	          3.24773877	         -3.70570835	          0.07563784	          0.12708551	          0.02165265	          0.05324760	          0.09522562	          0.08971894	          0.16773746	          0.09634526	          0.07945623	          0.01000021	          0.01000005	          0.02368605	          0.01475826	          0.34554830	          0.10065159	          0.01000005	          0.01000018	          0.04101721	          0.02461721	          0.01724255	          0.09991001	          0.03141839	          0.42783512	          0.01001902	          0.02124787	          0.28465790	          0.28598258	          0.01387980	
          0.03732123	         -7.90222773	         -4.32501571	          9.00663309	          0.05265403	          0.92080567	         -0.01404798	         31.09359703	          0.96326342	         -5.03093891	         -5.90864667	          5.24687042	          0.17703436	        -11.31267728	         -4.70529579	          5.77625347	        -10.80564874	          7.66960270	         34.98949071	         -1.13745321	          3.60315336	         -3.81696470	          0.08671892	          0.10526076	          0.01793418	          0.11332287	          0.12420627	          0.07734041	          0.13893155	          0.14403060	          0.06581098	          0.01000017	          0.01000004	          0.01961840	          0.01222380	          0.38077960	          0.13548640	          0.01000004	          0.01000011	          0.03397321	          0.03590647	          0.02087346	          0.08275222	          0.02602282	          0.41639283	          0.01207935	          0.01759900	          0.23577276	          0.24473153	          0.01149618	
          0.04976163	         -7.94241431	         -4.24999331	          8.90220804	          0.07037985	          0.91998307	         -0.01354799	         30.80426450	          1.10323413	         -4.81311297	         -7.18708192	          4.74027130	          0.14487535	        -10.99275968	         -4.61578995	          5.33158435	        -13.24122899	          6.46708460	         36.94702807	         -0.87920569	          3.96295127	         -3.89473422	          0.08444616	          0.08718403	          0.01485430	          0.15361447	          0.15095011	          0.06541680	          0.11507250	          0.17496731	          0.05450907	          0.01000023	          0.01262398	          0.01624933	          0.01012495	          0.40526217	          0.16765782	          0.01000004	          0.01000014	          0.02813889	          0.05667770	          0.01954819	          0.06854102	          0.02155385	          0.38997267	          0.01000526	          0.01457669	          0.19528280	          0.20270307	          0.01000000	
          0.06220204	         -7.96296536	         -4.16950838	          8.74611895	          0.08787492	          0.91984495	         -0.01297680	         30.47718210	          1.25748977	         -4.62218140	         -8.45103059	          4.45295953	          0.12126224	        -10.33442009	         -4.49314230	          4.85055828	        -16.25487306	          5.08047266	         38.61033664	         -0.65966932	          4.32765738	         -3.93598253	          0.08021296	          0.07221167	          0.01230334	          0.17217959	          0.13735491	          0.06299217	          0.09531085	          0.18092237	          0.04514807	          0.01000018	          0.07392811	          0.01345886	          0.01000029	          0.41310157	          0.18411921	          0.01000005	          0.01000011	          0.02330652	          0.08300542	          0.02520702	          0.05677046	          0.01785234	          0.34284637	          0.01000015	          0.01207341	          0.16174630	          0.16789227	          0.01000003	
          0.07464245	         -7.96558992	         -4.07427299	          8.54120458	          0.10502034	          0.92043747	         -0.01237096	         30.07293594	          1.41439131	         -4.44000070	         -9.59635848	          4.31174490	          0.09867321	         -9.31382347	         -4.33347912	          4.32141525	        -19.86402047	          3.59182728	         39.54814936	         -0.48776958	          4.68846834	         -3.93988693	          0.06643785	          0.05981055	          0.01019048	          0.17306555	          0.11376658	          0.05648392	          0.07894292	          0.17108240	          0.03739466	          0.01000017	          0.14515748	          0.01114772	          0.01000075	          0.41025771	          0.19286173	          0.01000006	          0.01000015	          0.01930402	          0.10103002	          0.02087833	          0.04702180	          0.01478651	          0.28396844	          0.01000011	          0.01000003	          0.13396913	          0.13905963	          0.01000003	
          0.08708286	         -7.95265203	         -3.95416235	          8.28834560	          0.12176874	          0.92177423	         -0.01175883	         29.53252708	          1.56634232	         -4.24084073	        -10.51162233	          4.32089022	          0.08143355	         -7.94745019	         -4.14043037	          3.74352554	        -24.00817287	          2.01049073	         39.45179419	         -0.36629492	          5.03415097	         -3.90556427	          0.05502832	          0.04953912	          0.01000007	          0.16650379	          0.09422913	          0.05391235	          0.06538591	          0.15657150	          0.03097277	          0.01000016	          0.18703343	          0.01000081	          0.01000103	          0.39733910	          0.19799475	          0.01000006	          0.01000019	          0.01598888	          0.11282500	          0.01729292	          0.05956685	          0.01224718	          0.23520170	          0.01000008	          0.01000001	          0.11096221	          0.11517850	          0.01000001	
